# OBJ file exported from Hammer

g default
v -128.15 32 -0.000104904
v -64.0743 32 110.981
v 128.15 32 0.000436783
v -128.15 -32 -0.000104904
v 128.15 -32 0.000436783
v -64.0749 -32 -110.981
v 64.0755 32 110.981
v 64.0755 -32 110.981
v -64.0744 -32 110.981
v -64.0748 32 -110.981
v 64.075 32 -110.981
v 64.075 -32 -110.981

vn -0.866025 5.95347e-07 0.500001
vn 0 -1 -0
vn 0.866026 2.9578e-07 0.5
vn 0 -1 -0
vn 0 -1 -0
vn 0 2.14058e-07 1
vn -3.27442e-07 0 -1
vn 0 -1 -0
vn 0 1 -0
vn 0.866026 2.9578e-07 0.5
vn -0.866026 3.85082e-07 -0.499999
vn 0 -1 -0
vn -0.866025 5.95347e-07 0.500001
vn 0 1 -0
vn 0.866026 1.48837e-07 -0.5
vn 0 1 -0
vn -0.866026 3.85082e-07 -0.499999
vn 0 1 -0
vn 0 2.14058e-07 1
vn 0 1 -0
vn 0 1 -0
vn -3.27442e-07 0 -1
vn 0.866026 1.48837e-07 -0.5
vn 0 -1 -0
vn 0.866026 1.48837e-07 -0.5
vn -3.27442e-07 0 -1
vn 0.866026 1.48837e-07 -0.5
vn 0.866026 2.9578e-07 0.5
vn -3.27442e-07 0 -1
vn -0.866026 3.85082e-07 -0.499999
vn -0.866026 3.85082e-07 -0.499999
vn -0.866025 5.95347e-07 0.500001
vn -0.866025 5.95347e-07 0.500001
vn 0 2.14058e-07 1
vn 0 2.14058e-07 1
vn 0.866026 2.9578e-07 0.5

vt 41.8822 15.7341
vt 41.3816 14.867
vt 43.384 14.867
vt 42.8834 15.7341
vt 41.8822 15.7341
vt 42.8834 15.7341
vt 41.8822 14
vt 42.8834 14
vt 41.384 15.867
vt 43.4608 16.7341
vt 41.3816 14.867
vt 41.8822 14
vt 40.2269 14.867
vt 39.8822 16.7341
vt 44.384 14.2897
vt 40.8834 15
vt 40.8822 13.4227
vt 39.3816 15.867
vt 41.3049 16.7341
vt 40.8834 16.7341
vt 39.8822 15
vt 42.8834 12.8453
vt 42.8834 14
vt 43.384 14.867
vt 43.8834 13.4226
vt 42.8834 14
vt 43.384 14.867
vt 44.384 15.4444
vt 41.8822 12.8453
vt 41.8822 14
vt 40.2269 14.867
vt 41.3816 14.867
vt 41.3049 16.7341
vt 41.8822 15.7341
vt 43.4608 16.7341
vt 42.8834 15.7341

s off
g mesh_181

f 11/16/16 10/21/21 1/18/18 2/14/14 7/20/20 3/9/9
f 5/24/24 8/4/4 9/5/5 4/2/2 6/12/12 12/8/8
f 5/27/27 12/23/23 11/25/25 3/15/15
f 12/26/26 6/7/7 10/29/29 11/22/22
f 6/30/30 4/11/11 1/31/31 10/17/17
f 4/32/32 9/1/1 2/33/33 1/13/13
f 9/34/34 8/6/6 7/35/35 2/19/19
f 8/36/36 5/3/3 3/28/28 7/10/10

